<svg width="52" height="52" viewBox="0 0 52 52" fill="none" xmlns="http://www.w3.org/2000/svg">
<path d="M19.3039 4.79199C13.739 4.79199 9.21484 9.31615 9.21484 14.8811C9.21484 20.3398 13.4841 24.7578 19.0491 24.9489C19.219 24.9277 19.3889 24.9277 19.5163 24.9489C19.5588 24.9489 19.5801 24.9489 19.6225 24.9489C19.6438 24.9489 19.6438 24.9489 19.665 24.9489C25.1025 24.7578 29.3718 20.3398 29.393 14.8811C29.393 9.31615 24.8689 4.79199 19.3039 4.79199Z" fill="#EF5DA8"/>
<path d="M30.0942 30.5987C24.1682 26.6481 14.5039 26.6481 8.53539 30.5987C5.83789 32.4042 4.35107 34.8468 4.35107 37.4593C4.35107 40.0719 5.83789 42.4933 8.51415 44.2774C11.4878 46.274 15.396 47.2723 19.3042 47.2723C23.2124 47.2723 27.1206 46.274 30.0942 44.2774C32.7705 42.472 34.2573 40.0506 34.2573 37.4169C34.236 34.8043 32.7705 32.3829 30.0942 30.5987Z" fill="#EF5DA8"/>
<path d="M42.647 16.1343C42.9868 20.2549 40.0556 23.8657 35.9988 24.3542C35.9775 24.3542 35.9775 24.3542 35.9563 24.3542H35.8926C35.7651 24.3542 35.6377 24.3542 35.5315 24.3967C33.4712 24.5029 31.5808 23.8445 30.1577 22.6338C32.3455 20.6797 33.5986 17.7485 33.3437 14.5625C33.1951 12.8421 32.6003 11.2703 31.7083 9.93215C32.5154 9.52859 33.4499 9.2737 34.4058 9.18874C38.5688 8.82766 42.2859 11.9287 42.647 16.1343Z" fill="#EF5DA8"/>
<path d="M46.8955 35.7813C46.7256 37.8416 45.4087 39.6258 43.1997 40.8365C41.0757 42.0047 38.3994 42.557 35.7444 42.4932C37.2737 41.1126 38.1658 39.3922 38.3357 37.5655C38.5481 34.9317 37.2949 32.4042 34.7886 30.3863C33.3655 29.2606 31.7087 28.3685 29.9033 27.7101C34.5974 26.3507 40.5022 27.264 44.1343 30.1952C46.0884 31.7669 47.0866 33.7423 46.8955 35.7813Z" fill="#EF5DA8"/>
</svg>
