<svg width="23" height="26" viewBox="0 0 23 26" fill="none" xmlns="http://www.w3.org/2000/svg">
<g filter="url(#filter0_d_605_7106)">
<path d="M16.9705 18.7364C15.9149 19.7596 14.7625 19.5981 13.6531 19.1134C12.4791 18.6179 11.402 18.5964 10.1634 19.1134C8.61236 19.7812 7.79379 19.5873 6.8675 18.7364C1.61136 13.3187 2.38686 5.06829 8.35387 4.76671C9.80792 4.84211 10.8204 5.56375 11.6713 5.62837C12.9422 5.36988 14.1593 4.62669 15.5164 4.72363C17.1428 4.85288 18.3707 5.49912 19.1785 6.66237C15.818 8.6765 16.615 13.1033 19.6955 14.3419C19.0816 15.9575 18.2845 17.5624 16.9597 18.7472L16.9705 18.7364ZM11.5636 4.70209C11.402 2.30021 13.3515 0.318386 15.5918 0.124512C15.9042 2.90337 13.0715 4.97136 11.5636 4.70209Z" fill="black"/>
</g>
<defs>
<filter id="filter0_d_605_7106" x="0.376324" y="0.124512" width="22.302" height="25.3558" filterUnits="userSpaceOnUse" color-interpolation-filters="sRGB">
<feFlood flood-opacity="0" result="BackgroundImageFix"/>
<feColorMatrix in="SourceAlpha" type="matrix" values="0 0 0 0 0 0 0 0 0 0 0 0 0 0 0 0 0 0 127 0" result="hardAlpha"/>
<feOffset dy="2.98305"/>
<feGaussianBlur stdDeviation="1.49153"/>
<feComposite in2="hardAlpha" operator="out"/>
<feColorMatrix type="matrix" values="0 0 0 0 0 0 0 0 0 0 0 0 0 0 0 0 0 0 0.09 0"/>
<feBlend mode="normal" in2="BackgroundImageFix" result="effect1_dropShadow_605_7106"/>
<feBlend mode="normal" in="SourceGraphic" in2="effect1_dropShadow_605_7106" result="shape"/>
</filter>
</defs>
</svg>
