<svg width="29" height="29" viewBox="0 0 29 29" fill="none" xmlns="http://www.w3.org/2000/svg">
<path d="M14.3794 0.59668C6.7169 0.59668 0.498047 6.81553 0.498047 14.478C0.498047 22.1406 6.7169 28.3594 14.3794 28.3594C22.0419 28.3594 28.2608 22.1406 28.2608 14.478C28.2608 6.81553 22.0419 0.59668 14.3794 0.59668ZM14.3794 4.76109C16.6837 4.76109 18.5438 6.62119 18.5438 8.9255C18.5438 11.2298 16.6837 13.0899 14.3794 13.0899C12.0751 13.0899 10.215 11.2298 10.215 8.9255C10.215 6.62119 12.0751 4.76109 14.3794 4.76109ZM14.3794 24.4726C10.9091 24.4726 7.84129 22.6958 6.05059 20.0028C6.09224 17.2404 11.6031 15.7274 14.3794 15.7274C17.1418 15.7274 22.6666 17.2404 22.7082 20.0028C20.9175 22.6958 17.8497 24.4726 14.3794 24.4726Z" fill="#979797"/>
</svg>
