<svg width="25" height="30" viewBox="0 0 25 30" fill="none" xmlns="http://www.w3.org/2000/svg">
<path d="M12.7928 15.4341C16.5938 15.4341 19.6744 12.1885 19.6744 8.18386C19.6744 4.17922 16.5938 0.933594 12.7928 0.933594C8.9918 0.933594 5.91121 4.17922 5.91121 8.18386C5.91121 12.1885 8.9918 15.4341 12.7928 15.4341ZM17.6099 17.2467H16.7121C15.5186 17.8244 14.1906 18.153 12.7928 18.153C11.395 18.153 10.0724 17.8244 8.87352 17.2467H7.97569C3.98651 17.2467 0.75 20.6566 0.75 24.8595V27.2158C0.75 28.7168 1.90589 29.9347 3.3306 29.9347H22.255C23.6797 29.9347 24.8356 28.7168 24.8356 27.2158V24.8595C24.8356 20.6566 21.5991 17.2467 17.6099 17.2467Z" fill="#2A66B6"/>
</svg>
