<svg width="18" height="18" viewBox="0 0 18 18" fill="none" xmlns="http://www.w3.org/2000/svg">
<path d="M11.1839 14.9193H5.11996C4.11778 14.9193 3.3031 14.1046 3.3031 13.1024C3.3031 12.1002 4.11778 11.2856 5.11996 11.2856H10.2072C11.6098 11.2856 12.7508 10.1446 12.7508 8.74196C12.7508 7.33934 11.6098 6.19836 10.2072 6.19836H6.67446C6.40757 6.72153 6.07706 7.20972 5.69045 7.65184H10.2072C10.8082 7.65184 11.2973 8.14094 11.2973 8.74196C11.2973 9.34298 10.8082 9.83208 10.2072 9.83208H5.11996C3.31691 9.83208 1.84961 11.2994 1.84961 13.1024C1.84961 14.9055 3.31691 16.3728 5.11996 16.3728H12.0916C11.735 15.9242 11.4305 15.4366 11.1839 14.9193ZM4.02984 1.83789C2.82781 1.83789 1.84961 2.81609 1.84961 4.01812C1.84961 6.33498 4.02984 7.65184 4.02984 7.65184C4.02984 7.65184 6.21007 6.33426 6.21007 4.01812C6.21007 2.81609 5.23188 1.83789 4.02984 1.83789ZM4.02984 5.10824C3.88664 5.10819 3.74485 5.07994 3.61256 5.02509C3.48028 4.97025 3.36009 4.88988 3.25886 4.78859C3.15764 4.68729 3.07735 4.56705 3.02259 4.43473C2.96784 4.30241 2.93968 4.1606 2.93973 4.0174C2.93977 3.87419 2.96803 3.7324 3.02287 3.60012C3.07772 3.46783 3.15808 3.34764 3.25938 3.24642C3.36067 3.14519 3.48091 3.06491 3.61323 3.01015C3.74555 2.95539 3.88736 2.92723 4.03057 2.92728C4.31978 2.92738 4.59711 3.04236 4.80155 3.24693C5.00598 3.4515 5.12078 3.72891 5.12069 4.01812C5.12059 4.30734 5.00561 4.58467 4.80103 4.7891C4.59646 4.99354 4.31906 5.10834 4.02984 5.10824Z" fill="#444444"/>
<path d="M14.2037 10.5586C13.0016 10.5586 12.0234 11.5368 12.0234 12.7388C12.0234 15.0557 14.2037 16.3725 14.2037 16.3725C14.2037 16.3725 16.3839 15.055 16.3839 12.7388C16.3839 11.5368 15.4057 10.5586 14.2037 10.5586ZM14.2037 13.8289C14.0605 13.8289 13.9187 13.8006 13.7864 13.7458C13.6541 13.6909 13.5339 13.6106 13.4327 13.5093C13.3315 13.408 13.2512 13.2878 13.1964 13.1554C13.1417 13.0231 13.1135 12.8813 13.1136 12.7381C13.1136 12.5949 13.1419 12.4531 13.1967 12.3208C13.2515 12.1885 13.3319 12.0683 13.4332 11.9671C13.5345 11.8659 13.6547 11.7856 13.7871 11.7309C13.9194 11.6761 14.0612 11.6479 14.2044 11.648C14.4936 11.6481 14.7709 11.7631 14.9754 11.9676C15.1798 12.1722 15.2946 12.4496 15.2945 12.7388C15.2944 13.028 15.1794 13.3054 14.9749 13.5098C14.7703 13.7142 14.4929 13.829 14.2037 13.8289Z" fill="#444444"/>
</svg>
