<svg width="19" height="20" viewBox="0 0 19 20" fill="none" xmlns="http://www.w3.org/2000/svg">
<path d="M8.9375 17.425V10.575L2.9375 7.1V13.95L8.9375 17.425ZM10.9375 17.425L16.9375 13.95V7.1L10.9375 10.575V17.425ZM8.9375 19.725L1.9375 15.7C1.62083 15.5167 1.375 15.275 1.2 14.975C1.025 14.675 0.9375 14.3417 0.9375 13.975V6.025C0.9375 5.65833 1.025 5.325 1.2 5.025C1.375 4.725 1.62083 4.48333 1.9375 4.3L8.9375 0.275C9.25417 0.0916667 9.5875 0 9.9375 0C10.2875 0 10.6208 0.0916667 10.9375 0.275L17.9375 4.3C18.2542 4.48333 18.5 4.725 18.675 5.025C18.85 5.325 18.9375 5.65833 18.9375 6.025V13.975C18.9375 14.3417 18.85 14.675 18.675 14.975C18.5 15.275 18.2542 15.5167 17.9375 15.7L10.9375 19.725C10.6208 19.9083 10.2875 20 9.9375 20C9.5875 20 9.25417 19.9083 8.9375 19.725ZM13.9375 6.525L15.8625 5.425L9.9375 2L7.9875 3.125L13.9375 6.525ZM9.9375 8.85L11.8875 7.725L5.9625 4.3L4.0125 5.425L9.9375 8.85Z" fill="#27FF8A"/>
</svg>
