<svg width="46" height="44" viewBox="0 0 46 44" fill="none" xmlns="http://www.w3.org/2000/svg">
<circle cx="23.1756" cy="25.2005" r="17.5291" fill="url(#paint0_linear_642_5032)"/>
<circle cx="44.2377" cy="9.37197" r="1.70058" fill="url(#paint1_linear_642_5032)"/>
<ellipse cx="3.68459" cy="3.48542" rx="2.74709" ry="2.61628" fill="url(#paint2_linear_642_5032)"/>
<ellipse cx="2.24564" cy="36.5815" rx="1.30814" ry="1.43895" fill="url(#paint3_linear_642_5032)"/>
<ellipse cx="41.0974" cy="42.7298" rx="0.65407" ry="0.523256" fill="url(#paint4_linear_642_5032)"/>
<path d="M21.8736 29.9407C21.5018 29.9407 21.1301 29.7813 20.9177 29.4627L17.9438 25.6391C17.5189 25.108 17.6252 24.3646 18.1562 23.9397C18.6873 23.5148 19.4307 23.6211 19.8556 24.1521L21.8736 26.7543L26.3345 20.9658C26.7594 20.4347 27.5028 20.3285 28.0339 20.7534C28.5649 21.1782 28.6712 21.9217 28.2463 22.4527L22.8295 29.4627C22.564 29.7282 22.2454 29.9407 21.8736 29.9407Z" fill="white"/>
<circle cx="30.6326" cy="27.9475" r="0.65407" fill="white"/>
<circle cx="13.4957" cy="20.7531" r="1.04651" fill="white"/>
<circle cx="28.8006" cy="15.1278" r="0.392442" fill="white"/>
<circle cx="17.9432" cy="33.5726" r="0.523256" fill="white"/>
<circle cx="23.6991" cy="21.0146" r="0.261628" fill="white"/>
<defs>
<linearGradient id="paint0_linear_642_5032" x1="5.64648" y1="5.51869" x2="46.1178" y2="11.7891" gradientUnits="userSpaceOnUse">
<stop stop-color="#4C1044"/>
<stop offset="1" stop-color="#4C1044"/>
</linearGradient>
<linearGradient id="paint1_linear_642_5032" x1="42.5371" y1="7.46254" x2="46.4634" y2="8.07087" gradientUnits="userSpaceOnUse">
<stop stop-color="#4C1044"/>
<stop offset="1" stop-color="#4C1044"/>
</linearGradient>
<linearGradient id="paint2_linear_642_5032" x1="0.9375" y1="0.547843" x2="7.26481" y2="1.57718" gradientUnits="userSpaceOnUse">
<stop stop-color="#4C1044"/>
<stop offset="1" stop-color="#4C1044"/>
</linearGradient>
<linearGradient id="paint3_linear_642_5032" x1="0.9375" y1="34.9659" x2="3.97008" y2="35.393" gradientUnits="userSpaceOnUse">
<stop stop-color="#4C1044"/>
<stop offset="1" stop-color="#4C1044"/>
</linearGradient>
<linearGradient id="paint4_linear_642_5032" x1="40.4434" y1="42.1423" x2="41.9338" y2="42.4309" gradientUnits="userSpaceOnUse">
<stop stop-color="#4C1044"/>
<stop offset="1" stop-color="#4C1044"/>
</linearGradient>
</defs>
</svg>
