<svg width="16" height="17" viewBox="0 0 16 17" fill="none" xmlns="http://www.w3.org/2000/svg">
<path d="M15.683 8.21025C15.683 12.4753 12.2256 15.9327 7.96049 15.9327C3.69543 15.9327 0.238037 12.4753 0.238037 8.21025C0.238037 3.94518 3.69543 0.487793 7.96049 0.487793C12.2256 0.487793 15.683 3.94518 15.683 8.21025Z" fill="#FFCB4C"/>
<path d="M7.87622 11.8692C8.8953 11.8692 9.72143 11.4767 9.72143 10.9924C9.72143 10.5082 8.8953 10.1157 7.87622 10.1157C6.85714 10.1157 6.03101 10.5082 6.03101 10.9924C6.03101 11.4767 6.85714 11.8692 7.87622 11.8692Z" fill="#65471B"/>
<path d="M11.3002 12.2903L11.2852 12.2812C10.9041 12.0473 10.4008 12.1677 10.1668 12.5488L10.0982 12.6601C9.85204 12.4048 9.53042 12.2176 9.15883 12.1418L8.52332 12.0119L9.10114 9.18454C9.19063 8.74618 8.90535 8.31463 8.46744 8.22514L8.45018 8.2215C8.01182 8.13201 7.58027 8.41729 7.49078 8.8552L6.7308 12.5724L6.72399 12.606L6.5818 13.3015L6.58135 13.3061L6.06894 15.8195C5.969 16.3092 6.19159 16.8416 6.92977 16.8416H8.41566C9.68941 16.8416 10.0669 16.3828 10.3227 15.4366L11.5678 13.4092C11.8013 13.0281 11.6813 12.5247 11.3002 12.2903Z" fill="#F19020"/>
<path d="M9.96354 14.4534C9.95445 14.4534 9.94446 14.4525 9.93446 14.4507C9.85088 14.4352 9.79592 14.3544 9.81227 14.2703C9.83907 14.1286 9.81136 14.0037 9.72732 13.8892C9.45931 13.5222 8.68752 13.3554 8.41269 13.3223C8.32819 13.3123 8.26778 13.2351 8.27822 13.151C8.28822 13.0665 8.36181 13.0052 8.44948 13.0166C8.49536 13.0216 9.57333 13.1574 9.9758 13.7075C10.1112 13.8924 10.158 14.1018 10.1148 14.3289C10.1007 14.4021 10.0362 14.4534 9.96354 14.4534ZM8.4831 16.602C8.36817 16.602 8.24234 16.588 8.1047 16.5557C7.8276 16.4903 7.63226 16.329 7.56867 16.1128C7.51506 15.9306 7.56413 15.738 7.69995 15.5972C7.8762 15.4146 8.15557 15.3546 8.46992 15.4346C8.55215 15.4555 8.60211 15.5395 8.58122 15.6222C8.56032 15.704 8.47719 15.7544 8.39361 15.7335C8.19146 15.6817 8.01884 15.7108 7.92208 15.8112C7.86394 15.8711 7.84259 15.9515 7.86439 16.026C7.89574 16.1333 8.0093 16.2173 8.17556 16.2559C8.71159 16.3817 9.00822 16.1714 9.16313 15.972C9.39389 15.6754 9.42115 15.2733 9.33893 15.1157C9.14723 14.7468 8.40814 14.6651 8.13968 14.6646C8.05473 14.6646 7.98568 14.5956 7.98568 14.5106C7.98568 14.4257 8.05473 14.3566 8.13968 14.3566C8.18646 14.3566 9.29441 14.3634 9.61239 14.974C9.75094 15.2397 9.71142 15.7694 9.40616 16.1614C9.26625 16.3404 8.97779 16.602 8.4831 16.602ZM6.24449 6.49426C6.24449 7.12614 5.86019 7.63855 5.38639 7.63855C4.9126 7.63855 4.52829 7.12659 4.52829 6.49426C4.52829 5.86238 4.91214 5.34997 5.38639 5.34997C5.86019 5.35043 6.24449 5.86238 6.24449 6.49426ZM13.3601 5.15373C13.4609 5.15373 13.5622 5.12239 13.6494 5.05698C13.8629 4.89708 13.9056 4.59454 13.7457 4.38149C12.1713 2.28189 10.0698 2.25781 9.98125 2.25781C9.7146 2.25781 9.49883 2.47404 9.49883 2.74069C9.49883 3.00644 9.71369 3.22221 9.97944 3.22312C10.0548 3.22403 11.702 3.26446 12.9739 4.96067C13.0684 5.08696 13.2133 5.15373 13.3601 5.15373ZM9.6769 6.49426C9.6769 7.12614 10.0612 7.63855 10.535 7.63855C11.0088 7.63855 11.3931 7.12659 11.3931 6.49426C11.3931 5.86238 11.0092 5.34997 10.535 5.34997C10.0608 5.35043 9.6769 5.86238 9.6769 6.49426ZM2.56134 5.15373C2.46049 5.15373 2.35919 5.12239 2.27197 5.05698C2.05892 4.89708 2.01577 4.59454 2.17567 4.38149C3.75014 2.28189 5.85156 2.25781 5.94014 2.25781C6.20679 2.25781 6.42256 2.47404 6.42256 2.74069C6.42256 3.00644 6.2077 3.22221 5.94196 3.22312C5.86655 3.22403 4.21939 3.26446 2.94746 4.96067C2.85297 5.08696 2.70806 5.15373 2.56134 5.15373Z" fill="#65471B"/>
</svg>
