<svg width="20" height="20" viewBox="0 0 20 20" fill="none" xmlns="http://www.w3.org/2000/svg">
<path d="M19.2013 7.98855H18.4203V7.94831H9.69491V11.8263H15.174C14.3746 14.0837 12.2267 15.7042 9.69491 15.7042C6.4825 15.7042 3.87796 13.0997 3.87796 9.88729C3.87796 6.67489 6.4825 4.07035 9.69491 4.07035C11.1777 4.07035 12.5268 4.62974 13.554 5.54349L16.2962 2.80128C14.5647 1.18757 12.2486 0.192383 9.69491 0.192383C4.3409 0.192383 0 4.53328 0 9.88729C0 15.2413 4.3409 19.5822 9.69491 19.5822C15.0489 19.5822 19.3898 15.2413 19.3898 9.88729C19.3898 9.23725 19.3229 8.60272 19.2013 7.98855Z" fill="#FFC107"/>
<path d="M9.69535 19.5823C12.1995 19.5823 14.4749 18.6239 16.1953 17.0655L13.1947 14.5264C12.1887 15.2915 10.9593 15.7053 9.69535 15.7043C7.1737 15.7043 5.03258 14.0964 4.22596 11.8525L1.06445 14.2884C2.66896 17.4281 5.92742 19.5823 9.69535 19.5823Z" fill="#4CAF50"/>
<path d="M19.2017 7.98848H18.4207V7.94824H9.69531V11.8262H15.1744C14.792 12.9006 14.1033 13.8394 13.1932 14.5267L13.1947 14.5258L16.1953 17.0649C15.9829 17.2578 19.3902 14.7347 19.3902 9.88722C19.3902 9.23718 19.3233 8.60265 19.2017 7.98848Z" fill="#1976D2"/>
<path d="M1.11719 5.3748L4.30245 7.71079C5.16433 5.57694 7.25164 4.07035 9.69428 4.07035C11.1771 4.07035 12.5262 4.62974 13.5533 5.54349L16.2955 2.80128C14.564 1.18757 12.2479 0.192383 9.69428 0.192383C5.97046 0.192383 2.74109 2.29472 1.11719 5.3748Z" fill="#FF3D00"/>
</svg>
