<svg width="18" height="18" viewBox="0 0 18 18" fill="none" xmlns="http://www.w3.org/2000/svg">
<g clip-path="url(#clip0_694_4840)">
<path d="M16.7482 1.97021L12.3839 1.97023V0.883925C12.3839 0.582781 12.14 0.338867 11.8389 0.338867C11.5377 0.338867 11.2938 0.582781 11.2938 0.883925V1.96995H6.93337V0.883925C6.93337 0.582781 6.68945 0.338867 6.38831 0.338867C6.08716 0.338867 5.84325 0.582781 5.84325 0.883925V1.96995H1.4866C0.884584 1.96995 0.396484 2.45805 0.396484 3.06007V16.6865C0.396484 17.2885 0.884584 17.7766 1.4866 17.7766H16.7482C17.3502 17.7766 17.8383 17.2885 17.8383 16.6865V3.06007C17.8383 2.45831 17.3502 1.97021 16.7482 1.97021ZM16.7482 16.6865H1.4866V3.06007H5.84325V3.60922C5.84325 3.91034 6.08716 4.15427 6.38831 4.15427C6.68945 4.15427 6.93337 3.91034 6.93337 3.60922V3.06034H11.2938V3.60949C11.2938 3.91063 11.5377 4.15455 11.8389 4.15455C12.14 4.15455 12.3839 3.91063 12.3839 3.60949V3.06034H16.7482V16.6865ZM12.9328 9.05596H14.0229C14.3238 9.05596 14.568 8.81178 14.568 8.51091V7.42079C14.568 7.11992 14.3238 6.87573 14.0229 6.87573H12.9328C12.6319 6.87573 12.3878 7.11992 12.3878 7.42079V8.51091C12.3878 8.81178 12.6319 9.05596 12.9328 9.05596ZM12.9328 13.4162H14.0229C14.3238 13.4162 14.568 13.1722 14.568 12.8711V11.781C14.568 11.4801 14.3238 11.2359 14.0229 11.2359H12.9328C12.6319 11.2359 12.3878 11.4801 12.3878 11.781V12.8711C12.3878 13.1725 12.6319 13.4162 12.9328 13.4162ZM9.66247 11.2359H8.57236C8.27148 11.2359 8.0273 11.4801 8.0273 11.781V12.8711C8.0273 13.1722 8.27148 13.4162 8.57236 13.4162H9.66247C9.96334 13.4162 10.2075 13.1722 10.2075 12.8711V11.781C10.2075 11.4804 9.96334 11.2359 9.66247 11.2359ZM9.66247 6.87573H8.57236C8.27148 6.87573 8.0273 7.11992 8.0273 7.42079V8.51091C8.0273 8.81178 8.27148 9.05596 8.57236 9.05596H9.66247C9.96334 9.05596 10.2075 8.81178 10.2075 8.51091V7.42079C10.2075 7.11965 9.96334 6.87573 9.66247 6.87573ZM5.30201 6.87573H4.21189C3.91102 6.87573 3.66683 7.11992 3.66683 7.42079V8.51091C3.66683 8.81178 3.91102 9.05596 4.21189 9.05596H5.30201C5.60288 9.05596 5.84707 8.81178 5.84707 8.51091V7.42079C5.84707 7.11965 5.60288 6.87573 5.30201 6.87573ZM5.30201 11.2359H4.21189C3.91102 11.2359 3.66683 11.4801 3.66683 11.781V12.8711C3.66683 13.1722 3.91102 13.4162 4.21189 13.4162H5.30201C5.60288 13.4162 5.84707 13.1722 5.84707 12.8711V11.781C5.84707 11.4804 5.60288 11.2359 5.30201 11.2359Z" fill="#444444"/>
</g>
<defs>
<clipPath id="clip0_694_4840">
<rect width="17.4419" height="17.4419" fill="white" transform="translate(0.396484 0.336914)"/>
</clipPath>
</defs>
</svg>
