<svg width="221" height="58" viewBox="0 0 221 58" fill="none" xmlns="http://www.w3.org/2000/svg">
<path fill-rule="evenodd" clip-rule="evenodd" d="M30.5231 16.5576C30.5946 24.0745 25.2971 31.8776 15.6326 31.8776H8.47373V54.4281H2.67505V7.46588C2.67505 5.74775 2.81823 4.10122 3.89206 3.09897C5.12553 1.92717 7.52792 1.9774 9.26827 2.0138C9.54805 2.01965 9.81073 2.02514 10.0487 2.02514H15.7758C23.7221 2.02514 30.5231 8.82607 30.5231 16.5576ZM24.5096 16.3429C24.2232 11.7612 20.7154 7.89541 16.0621 7.89541H8.40214V26.0074H15.4178C20.5722 26.0074 24.8675 21.4973 24.5096 16.3429ZM142.178 54.4996H136.522V2.02513H142.178V54.4996ZM216.325 54.5712H209.739L201.649 41.9L193.703 54.5712H186.83L198.428 37.032L187.833 20.7098H194.275L201.578 31.9492L208.736 20.7098H215.394L204.727 36.9604L216.325 54.5712ZM124.468 54.4281H129.694V37.5331C129.694 27.7255 121.891 19.7075 111.868 19.7075C102.204 19.7075 94.0428 27.6539 94.0428 37.5331C94.0428 47.4839 102.132 55.3587 111.868 55.3587C116.88 55.3587 122.392 52.8531 124.468 49.918V54.4281ZM111.868 25.4346C118.526 25.4346 123.895 30.8754 123.895 37.5331C123.895 44.1909 118.526 49.56 111.868 49.56C105.211 49.56 99.7699 44.1909 99.7699 37.5331C99.7699 30.8754 105.211 25.4346 111.868 25.4346ZM87.2146 25.8642H85.7828C84.4226 25.8642 83.2056 26.1505 82.275 26.7948C81.058 27.6539 80.7 28.8709 80.7 30.3743V54.4996H75.2593V31.3765C75.2593 27.5823 76.1183 24.4324 78.624 22.3563C80.3421 20.9961 82.7761 20.2803 85.5681 20.2803H87.2146V25.8642ZM63.2051 54.4281H68.4311V37.5331C68.4311 27.7255 60.6279 19.7075 50.6055 19.7075C40.941 19.7075 32.7799 27.6539 32.7799 37.5331C32.7799 47.4839 40.8694 55.3587 50.6055 55.3587C55.6167 55.3587 61.129 52.8531 63.2051 49.918V54.4281ZM50.6055 25.4346C57.2633 25.4346 62.6324 30.8754 62.6324 37.5331C62.6324 44.1909 57.2633 49.56 50.6055 49.56C43.9478 49.56 38.507 44.1909 38.507 37.5331C38.507 30.8754 43.9478 25.4346 50.6055 25.4346ZM184.514 35.0275C184.729 36.4593 184.371 37.8195 183.44 39.0365C182.724 39.824 180.934 40.4683 179.216 40.4683H155.234C156.379 45.6942 161.391 49.7032 166.903 49.56C168.35 49.56 169.75 49.2982 171.053 48.8178V54.8918C169.735 55.1968 168.348 55.3587 166.903 55.3587C156.952 55.3587 149.006 47.0544 149.006 37.5331C149.006 27.7255 157.31 19.7075 166.903 19.7075C175.78 19.7075 183.082 25.9357 184.514 35.0275ZM178.715 35.0275C177.427 29.372 172.702 25.4346 166.903 25.4346C161.033 25.4346 156.38 29.372 155.091 35.0275H178.715Z" fill="white"/>
<path d="M30.5231 16.5576H28.5231V16.5672L28.5231 16.5767L30.5231 16.5576ZM8.47373 31.8776V29.8776H6.47373V31.8776H8.47373ZM8.47373 54.4281V56.4281H10.4737V54.4281H8.47373ZM2.67505 54.4281H0.675049V56.4281H2.67505V54.4281ZM3.89206 3.09897L5.25669 4.56108L5.26315 4.55506L5.26956 4.54897L3.89206 3.09897ZM9.26827 2.0138L9.22646 4.01336L9.26827 2.0138ZM24.5096 16.3429L22.5134 16.4676L22.5144 16.4814L24.5096 16.3429ZM8.40214 7.89541V5.89541H6.40214V7.89541H8.40214ZM8.40214 26.0074H6.40214V28.0074H8.40214V26.0074ZM136.522 54.4996H134.522V56.4996H136.522V54.4996ZM142.178 54.4996V56.4996H144.178V54.4996H142.178ZM136.522 2.02513V0.0251274H134.522V2.02513H136.522ZM142.178 2.02513H144.178V0.0251274H142.178V2.02513ZM209.739 54.5712L208.053 55.6474L208.643 56.5712H209.739V54.5712ZM216.325 54.5712V56.5712H220.037L217.995 53.4713L216.325 54.5712ZM201.649 41.9L203.335 40.8238L201.634 38.1597L199.955 40.8375L201.649 41.9ZM193.703 54.5712V56.5712H194.809L195.397 55.6338L193.703 54.5712ZM186.83 54.5712L185.162 53.4681L183.11 56.5712H186.83V54.5712ZM198.428 37.032L200.096 38.1351L200.819 37.0421L200.105 35.9431L198.428 37.032ZM187.833 20.7098V18.7098H184.15L186.155 21.7987L187.833 20.7098ZM194.275 20.7098L195.953 19.6202L195.361 18.7098H194.275V20.7098ZM201.578 31.9492L199.9 33.0388L201.594 35.6459L203.264 33.0237L201.578 31.9492ZM208.736 20.7098V18.7098H207.639L207.05 19.6353L208.736 20.7098ZM215.394 20.7098L217.066 21.8073L219.099 18.7098H215.394V20.7098ZM204.727 36.9604L203.055 35.8629L202.334 36.9622L203.057 38.0604L204.727 36.9604ZM129.694 54.4281V56.4281H131.694V54.4281H129.694ZM124.468 54.4281H122.468V56.4281H124.468V54.4281ZM124.468 49.918H126.468V43.627L122.835 48.763L124.468 49.918ZM87.2146 25.8642V27.8642H89.2146V25.8642H87.2146ZM82.275 26.7948L81.1366 25.1504L81.1291 25.1556L81.1216 25.1609L82.275 26.7948ZM80.7 54.4996V56.4996H82.7V54.4996H80.7ZM75.2593 54.4996H73.2593V56.4996H75.2593V54.4996ZM78.624 22.3563L77.3826 20.7882L77.3651 20.8021L77.3479 20.8163L78.624 22.3563ZM87.2146 20.2803H89.2146V18.2803H87.2146V20.2803ZM68.4311 54.4281V56.4281H70.4311V54.4281H68.4311ZM63.2051 54.4281H61.2051V56.4281H63.2051V54.4281ZM63.2051 49.918H65.2051V43.627L61.5723 48.763L63.2051 49.918ZM183.44 39.0365L184.92 40.3818L184.977 40.3189L185.029 40.2514L183.44 39.0365ZM184.514 35.0275L186.492 34.7308L186.491 34.7236L186.489 34.7164L184.514 35.0275ZM155.234 40.4683V38.4683H152.748L153.28 40.8964L155.234 40.4683ZM166.903 49.56V47.56H166.877L166.851 47.5607L166.903 49.56ZM171.053 48.8178H173.053V45.9491L170.362 46.9412L171.053 48.8178ZM171.053 54.8918L171.504 56.8404L173.053 56.4819V54.8918H171.053ZM178.715 35.0275V37.0275H181.222L180.665 34.5832L178.715 35.0275ZM155.091 35.0275L153.141 34.5832L152.584 37.0275H155.091V35.0275ZM15.6326 33.8776C26.6399 33.8776 32.6028 24.9218 32.523 16.5386L28.5231 16.5767C28.5865 23.2272 23.9543 29.8776 15.6326 29.8776V33.8776ZM8.47373 33.8776H15.6326V29.8776H8.47373V33.8776ZM10.4737 54.4281V31.8776H6.47373V54.4281H10.4737ZM2.67505 56.4281H8.47373V52.4281H2.67505V56.4281ZM0.675049 7.46588V54.4281H4.67505V7.46588H0.675049ZM2.52742 1.63686C1.60483 2.49794 1.15599 3.57425 0.930146 4.57274C0.708714 5.5517 0.675049 6.5776 0.675049 7.46588H4.67505C4.67505 6.63604 4.71297 5.97961 4.83159 5.45521C4.94578 4.95033 5.10545 4.70225 5.25669 4.56108L2.52742 1.63686ZM9.31008 0.0142332C8.46588 -0.00341964 7.27615 -0.0322053 6.12631 0.120781C5.01203 0.269036 3.59097 0.626378 2.51456 1.64898L5.26956 4.54897C5.42662 4.39976 5.82349 4.19632 6.65386 4.08584C7.44867 3.98009 8.3303 3.99462 9.22646 4.01336L9.31008 0.0142332ZM10.0487 0.0251395C9.83571 0.0251395 9.59521 0.0201955 9.31008 0.0142332L9.22646 4.01336C9.5009 4.0191 9.78575 4.02514 10.0487 4.02514V0.0251395ZM15.7758 0.0251395H10.0487V4.02514H15.7758V0.0251395ZM32.5231 16.5576C32.5231 7.70266 24.8078 0.0251395 15.7758 0.0251395V4.02514C22.6365 4.02514 28.5231 9.94948 28.5231 16.5576H32.5231ZM16.0621 9.89541C19.4953 9.89541 22.2823 12.7682 22.5135 16.4676L26.5057 16.2181C26.1642 10.7542 21.9355 5.89541 16.0621 5.89541V9.89541ZM8.40214 9.89541H16.0621V5.89541H8.40214V9.89541ZM10.4021 26.0074V7.89541H6.40214V26.0074H10.4021ZM15.4178 24.0074H8.40214V28.0074H15.4178V24.0074ZM22.5144 16.4814C22.7904 20.4558 19.437 24.0074 15.4178 24.0074V28.0074C21.7074 28.0074 26.9447 22.5388 26.5048 16.2043L22.5144 16.4814ZM136.522 56.4996H142.178V52.4996H136.522V56.4996ZM134.522 2.02513V54.4996H138.522V2.02513H134.522ZM142.178 0.0251274H136.522V4.02513H142.178V0.0251274ZM144.178 54.4996V2.02513H140.178V54.4996H144.178ZM209.739 56.5712H216.325V52.5712H209.739V56.5712ZM199.963 42.9762L208.053 55.6474L211.424 53.495L203.335 40.8238L199.963 42.9762ZM195.397 55.6338L203.344 42.9626L199.955 40.8375L192.008 53.5087L195.397 55.6338ZM186.83 56.5712H193.703V52.5712H186.83V56.5712ZM196.759 35.9289L185.162 53.4681L188.499 55.6743L200.096 38.1351L196.759 35.9289ZM186.155 21.7987L196.75 38.1209L200.105 35.9431L189.51 19.6208L186.155 21.7987ZM194.275 18.7098H187.833V22.7098H194.275V18.7098ZM203.255 30.8596L195.953 19.6202L192.598 21.7994L199.9 33.0388L203.255 30.8596ZM207.05 19.6353L199.891 30.8748L203.264 33.0237L210.423 21.7842L207.05 19.6353ZM215.394 18.7098H208.736V22.7098H215.394V18.7098ZM206.399 38.0579L217.066 21.8073L213.722 19.6123L203.055 35.8629L206.399 38.0579ZM217.995 53.4713L206.398 35.8604L203.057 38.0604L214.654 55.6712L217.995 53.4713ZM129.694 52.4281H124.468V56.4281H129.694V52.4281ZM127.694 37.5331V54.4281H131.694V37.5331H127.694ZM111.868 21.7075C120.771 21.7075 127.694 28.8143 127.694 37.5331H131.694C131.694 26.6367 123.011 17.7075 111.868 17.7075V21.7075ZM96.0428 37.5331C96.0428 28.7741 103.293 21.7075 111.868 21.7075V17.7075C101.115 17.7075 92.0428 26.5337 92.0428 37.5331H96.0428ZM111.868 53.3587C103.221 53.3587 96.0428 46.3637 96.0428 37.5331H92.0428C92.0428 48.6042 101.043 57.3587 111.868 57.3587V53.3587ZM122.835 48.763C122.084 49.8245 120.546 50.9948 118.465 51.9075C116.42 52.805 114.062 53.3587 111.868 53.3587V57.3587C114.686 57.3587 117.59 56.6596 120.072 55.5705C122.52 54.4966 124.776 52.9466 126.101 51.0729L122.835 48.763ZM126.468 54.4281V49.918H122.468V54.4281H126.468ZM125.895 37.5331C125.895 29.7863 119.646 23.4346 111.868 23.4346V27.4346C117.406 27.4346 121.895 31.9644 121.895 37.5331H125.895ZM111.868 51.56C119.631 51.56 125.895 45.2954 125.895 37.5331H121.895C121.895 43.0863 117.422 47.56 111.868 47.56V51.56ZM97.7699 37.5331C97.7699 45.3109 104.122 51.56 111.868 51.56V47.56C106.3 47.56 101.77 43.0709 101.77 37.5331H97.7699ZM111.868 23.4346C104.106 23.4346 97.7699 29.7708 97.7699 37.5331H101.77C101.77 31.9799 106.315 27.4346 111.868 27.4346V23.4346ZM85.7828 27.8642H87.2146V23.8642H85.7828V27.8642ZM83.4134 28.4392C83.9027 28.1005 84.6765 27.8642 85.7828 27.8642V23.8642C84.1688 23.8642 82.5086 24.2006 81.1366 25.1504L83.4134 28.4392ZM82.7 30.3743C82.7 29.2097 82.9536 28.7639 83.4283 28.4288L81.1216 25.1609C79.1623 26.5439 78.7 28.532 78.7 30.3743H82.7ZM82.7 54.4996V30.3743H78.7V54.4996H82.7ZM75.2593 56.4996H80.7V52.4996H75.2593V56.4996ZM73.2593 31.3765V54.4996H77.2593V31.3765H73.2593ZM77.3479 20.8163C74.1718 23.4479 73.2593 27.3315 73.2593 31.3765H77.2593C77.2593 27.8331 78.0648 25.4169 79.9 23.8964L77.3479 20.8163ZM85.5681 18.2803C82.4622 18.2803 79.548 19.0739 77.3826 20.7882L79.8654 23.9244C81.1361 22.9184 83.09 22.2803 85.5681 22.2803V18.2803ZM87.2146 18.2803H85.5681V22.2803H87.2146V18.2803ZM89.2146 25.8642V20.2803H85.2146V25.8642H89.2146ZM68.4311 52.4281H63.2051V56.4281H68.4311V52.4281ZM66.4311 37.5331V54.4281H70.4311V37.5331H66.4311ZM50.6055 21.7075C59.5076 21.7075 66.4311 28.8143 66.4311 37.5331H70.4311C70.4311 26.6367 61.7482 17.7075 50.6055 17.7075V21.7075ZM34.7799 37.5331C34.7799 28.7741 42.0299 21.7075 50.6055 21.7075V17.7075C39.8521 17.7075 30.7799 26.5337 30.7799 37.5331H34.7799ZM50.6055 53.3587C41.9583 53.3587 34.7799 46.3637 34.7799 37.5331H30.7799C30.7799 48.6042 39.7806 57.3587 50.6055 57.3587V53.3587ZM61.5723 48.763C60.8215 49.8245 59.2827 50.9948 57.2024 51.9075C55.1569 52.805 52.7988 53.3587 50.6055 53.3587V57.3587C53.4235 57.3587 56.3271 56.6596 58.8095 55.5705C61.2573 54.4966 63.5127 52.9466 64.8379 51.0729L61.5723 48.763ZM65.2051 54.4281V49.918H61.2051V54.4281H65.2051ZM64.6324 37.5331C64.6324 29.7863 58.3832 23.4346 50.6055 23.4346V27.4346C56.1433 27.4346 60.6324 31.9644 60.6324 37.5331H64.6324ZM50.6055 51.56C58.3678 51.56 64.6324 45.2954 64.6324 37.5331H60.6324C60.6324 43.0863 56.1587 47.56 50.6055 47.56V51.56ZM36.507 37.5331C36.507 45.3109 42.8587 51.56 50.6055 51.56V47.56C45.0368 47.56 40.507 43.0709 40.507 37.5331H36.507ZM50.6055 23.4346C42.8432 23.4346 36.507 29.7708 36.507 37.5331H40.507C40.507 31.9799 45.0523 27.4346 50.6055 27.4346V23.4346ZM185.029 40.2514C186.273 38.6241 186.791 36.7228 186.492 34.7308L182.536 35.3242C182.667 36.1958 182.468 37.0149 181.851 37.8216L185.029 40.2514ZM179.216 42.4683C180.311 42.4683 181.408 42.2657 182.357 41.9382C183.259 41.6266 184.242 41.1276 184.92 40.3818L181.96 37.6911C181.963 37.6881 181.947 37.7056 181.904 37.7392C181.861 37.7721 181.799 37.8141 181.717 37.862C181.549 37.959 181.325 38.0626 181.051 38.1572C180.497 38.3486 179.84 38.4683 179.216 38.4683V42.4683ZM155.234 42.4683H179.216V38.4683H155.234V42.4683ZM166.851 47.5607C162.302 47.6789 158.129 44.3334 157.188 40.0401L153.28 40.8964C154.63 47.055 160.48 51.7275 166.955 51.5593L166.851 47.5607ZM170.362 46.9412C169.273 47.3423 168.107 47.56 166.903 47.56V51.56C168.592 51.56 170.226 51.2542 171.745 50.6944L170.362 46.9412ZM173.053 54.8918V48.8178H169.053V54.8918H173.053ZM166.903 57.3587C168.498 57.3587 170.036 57.1799 171.504 56.8404L170.602 52.9433C169.434 53.2137 168.198 53.3587 166.903 53.3587V57.3587ZM147.006 37.5331C147.006 48.1381 155.827 57.3587 166.903 57.3587V53.3587C158.077 53.3587 151.006 45.9707 151.006 37.5331H147.006ZM166.903 17.7075C156.232 17.7075 147.006 26.5951 147.006 37.5331H151.006C151.006 28.8559 158.389 21.7075 166.903 21.7075V17.7075ZM186.489 34.7164C184.908 24.6723 176.785 17.7075 166.903 17.7075V21.7075C174.775 21.7075 181.256 27.1992 182.538 35.3386L186.489 34.7164ZM166.903 27.4346C171.727 27.4346 175.674 30.685 176.765 35.4718L180.665 34.5832C179.179 28.059 173.677 23.4346 166.903 23.4346V27.4346ZM157.041 35.4718C158.133 30.6778 162.015 27.4346 166.903 27.4346V23.4346C160.05 23.4346 154.626 28.0662 153.141 34.5832L157.041 35.4718ZM178.715 33.0275H155.091V37.0275H178.715V33.0275Z" fill="white"/>
</svg>
