<svg width="49" height="51" viewBox="0 0 49 51" fill="none" xmlns="http://www.w3.org/2000/svg">
<g clip-path="url(#clip0_605_7828)">
<path d="M21.1981 5.86084C24.4667 9.09731 27.8085 12.4048 31.1064 15.6703C27.5449 19.1968 23.9629 22.7436 20.4175 26.2541C17.1358 23.0046 13.7969 19.6985 10.5078 16.4417C14.0371 12.9486 17.6308 9.39167 21.1995 5.86084H21.1981Z" fill="#EF5DA8"/>
<path d="M24.7988 23.699C26.0465 22.4636 27.2444 21.276 28.4833 20.0493C28.8875 20.4017 29.3239 20.7787 29.7574 21.1586C35.5872 26.2859 41.4215 31.4089 47.244 36.5434C48.9017 38.0051 49.221 40.2033 48.0655 41.9274C46.5557 44.1807 43.3677 44.3968 41.5049 42.3465C39.4899 40.1294 37.4997 37.8876 35.4993 35.6575C32.0433 31.8047 28.5873 27.9505 25.1327 24.0978C25.0141 23.9644 24.9028 23.8237 24.7988 23.7005V23.699Z" fill="#EF5DA8"/>
<path d="M14.3123 50.4985C10.149 50.4985 5.98564 50.4985 1.82083 50.4985C0.606821 50.4985 0.252431 50.1476 0.250967 48.9542C0.250967 48.1407 0.234858 47.3258 0.261218 46.5138C0.316866 44.7535 1.76664 43.3049 3.54152 43.3005C10.7362 43.2846 17.9324 43.2846 25.1271 43.3005C26.94 43.3049 28.381 44.7839 28.4293 46.6182C28.4513 47.4491 28.4396 48.2814 28.4337 49.1137C28.4279 50.0751 28.0061 50.497 27.022 50.497C22.7855 50.5014 18.5489 50.4985 14.3123 50.4985Z" fill="#EF5DA8"/>
<path d="M24.72 42.21H4.04968C3.45366 39.2331 5.10406 37.3075 7.65654 37.3263C12.1113 37.3568 16.5675 37.3336 21.0223 37.335C23.3024 37.335 24.7141 38.7328 24.7185 40.9833C24.7185 41.3777 24.7185 41.7707 24.7185 42.21H24.72Z" fill="#EF5DA8"/>
<path d="M7.60729 16.2474C8.30143 16.2416 8.89305 16.4954 9.37924 16.9753C12.8807 20.438 16.3865 23.8978 19.8747 27.375C20.9042 28.4016 20.8837 29.9386 19.8879 30.9304C18.8906 31.9237 17.3384 31.9527 16.2986 30.9304C12.7855 27.4779 9.28991 24.0094 5.79873 20.5366C5.01673 19.7579 4.83661 18.6806 5.25982 17.7337C5.67426 16.81 6.57487 16.2387 7.60875 16.2474H7.60729Z" fill="#EF5DA8"/>
<path d="M23.4815 0.499988C24.1771 0.491287 24.7761 0.727643 25.2637 1.2105C28.7783 4.68623 32.2973 8.15761 35.7973 11.6493C36.8224 12.673 36.7829 14.2173 35.7739 15.2048C34.7868 16.1705 33.2375 16.1966 32.2226 15.2004C28.6978 11.7348 25.1861 8.25476 21.6832 4.76888C20.8954 3.98441 20.7328 3.02159 21.1604 2.01527C21.5822 1.022 22.392 0.528988 23.4815 0.499988Z" fill="#EF5DA8"/>
</g>
<defs>
<clipPath id="clip0_605_7828">
<rect width="48.5075" height="50" fill="white" transform="translate(0.246094 0.5)"/>
</clipPath>
</defs>
</svg>
