<svg width="52" height="52" viewBox="0 0 52 52" fill="none" xmlns="http://www.w3.org/2000/svg">
<path d="M45.9725 39.7777L42.4676 40.6061C41.6816 40.7973 41.0656 41.392 40.8957 42.178L40.1522 45.3005C39.7486 46.9998 37.582 47.5309 36.4562 46.1927L30.1049 38.8855C29.5951 38.2907 29.8713 37.3561 30.636 37.1649C34.3957 36.2516 37.7732 34.1486 40.2584 31.1536C40.662 30.665 41.3843 30.6013 41.8303 31.0473L46.546 35.763C48.1603 37.3774 47.5868 39.3953 45.9725 39.7777Z" fill="#EF5DA8"/>
<path d="M6.56915 39.7777L10.074 40.6061C10.86 40.7973 11.476 41.392 11.6459 42.178L12.3894 45.3005C12.793 46.9998 14.9596 47.5309 16.0854 46.1927L22.4367 38.8855C22.9465 38.2907 22.6703 37.3561 21.9056 37.1649C18.1459 36.2516 14.7684 34.1486 12.2832 31.1536C11.8796 30.665 11.1574 30.6013 10.7113 31.0473L5.99563 35.763C4.38126 37.3774 4.95479 39.3953 6.56915 39.7777Z" fill="#EF5DA8"/>
<path d="M26.3233 4.79248C18.1027 4.79248 11.4541 11.4411 11.4541 19.6616C11.4541 22.7417 12.3675 25.5668 13.9394 27.9247C16.2335 31.3233 19.8658 33.7236 24.0929 34.3396C24.8151 34.4671 25.5586 34.5308 26.3233 34.5308C27.088 34.5308 27.8314 34.4671 28.5536 34.3396C32.7807 33.7236 36.4131 31.3233 38.7072 27.9247C40.279 25.5668 41.1924 22.7417 41.1924 19.6616C41.1924 11.4411 34.5438 4.79248 26.3233 4.79248ZM32.8232 19.1943L31.0602 20.9574C30.7628 21.2548 30.5928 21.8283 30.6991 22.2531L31.2089 24.441C31.6124 26.1616 30.6991 26.8413 29.1697 25.9279L27.0455 24.6747C26.6631 24.441 26.0259 24.441 25.6435 24.6747L23.5194 25.9279C21.99 26.8201 21.0766 26.1616 21.4802 24.441L21.99 22.2531C22.0749 21.8495 21.9262 21.2548 21.6289 20.9574L19.8233 19.1943C18.7825 18.1535 19.1223 17.1126 20.5668 16.879L22.8396 16.4966C23.222 16.4329 23.6681 16.093 23.838 15.7532L25.0913 13.2467C25.771 11.8872 26.8756 11.8872 27.5553 13.2467L28.8085 15.7532C28.9785 16.093 29.4246 16.4329 29.8281 16.4966L32.101 16.879C33.5242 17.1126 33.8641 18.1535 32.8232 19.1943Z" fill="#EF5DA8"/>
</svg>
