<svg width="22" height="23" viewBox="0 0 22 23" fill="none" xmlns="http://www.w3.org/2000/svg">
<g clip-path="url(#clip0_694_4844)">
<path d="M12.4192 14.9725C12.4908 14.9719 12.5616 14.9572 12.6275 14.9292C12.6934 14.9012 12.7531 14.8606 12.8033 14.8095C12.8535 14.7584 12.8931 14.698 12.92 14.6316C12.9468 14.5652 12.9603 14.4942 12.9596 14.4226C12.959 14.351 12.9443 14.2803 12.9163 14.2144C12.8883 14.1485 12.8477 14.0887 12.7966 14.0385C12.7455 13.9884 12.6851 13.9487 12.6187 13.9219C12.5523 13.8951 12.4813 13.8816 12.4097 13.8822L12.4192 14.9725ZM4.21108 16.018C4.17365 16.0797 4.14884 16.1482 4.13809 16.2195C4.12735 16.2909 4.13088 16.3637 4.14849 16.4337C4.1661 16.5037 4.19743 16.5695 4.24067 16.6272C4.2839 16.685 4.33818 16.7336 4.40036 16.7703C4.46253 16.8069 4.53136 16.8308 4.60286 16.8407C4.67435 16.8505 4.74709 16.846 4.81684 16.8275C4.8866 16.809 4.95198 16.7768 5.0092 16.7329C5.06642 16.6889 5.11434 16.634 5.15018 16.5714L4.21108 16.018ZM15.122 6.1548C15.1244 6.082 15.1123 6.00944 15.0862 5.94141C15.0602 5.87338 15.0208 5.81126 14.9703 5.75873C14.9198 5.70619 14.8594 5.66431 14.7924 5.63554C14.7255 5.60678 14.6535 5.59172 14.5807 5.59126C14.5078 5.5908 14.4356 5.60495 14.3683 5.63287C14.301 5.66078 14.24 5.7019 14.1889 5.75379C14.1378 5.80569 14.0976 5.8673 14.0707 5.935C14.0438 6.00269 14.0307 6.07509 14.0323 6.14792L15.122 6.1548ZM14.5348 13.5136C15.3793 13.5062 16.0823 14.2056 16.0761 15.1096L17.1656 15.1172C17.1764 13.6329 16.0066 12.4115 14.5253 12.4233L14.5348 13.5136ZM16.0761 15.1096C16.0699 16.0197 15.3474 16.7413 14.4955 16.7483L14.505 17.8386C15.9789 17.8264 17.1556 16.5957 17.1656 15.1172L16.0761 15.1096ZM14.4955 16.7483C13.651 16.7558 12.948 16.0564 12.9542 15.1524L11.8654 15.145C11.8546 16.6293 13.0235 17.8512 14.505 17.8386L14.4955 16.7483ZM12.9542 15.1524C12.9604 14.2423 13.6829 13.5206 14.5348 13.5136L14.5253 12.4233C13.0514 12.4356 11.8747 13.6663 11.8647 15.1448L12.9542 15.1524ZM12.4097 13.8822L6.53655 13.9314L6.54605 15.0217L12.4192 14.9725L12.4097 13.8822ZM4.86222 14.9101L4.21108 16.018L5.15018 16.5714L5.80221 15.463L4.86222 14.9101ZM6.53655 13.9314C6.19669 13.936 5.86382 14.0286 5.57039 14.2001C5.27696 14.3716 5.03298 14.6163 4.86222 14.9101L5.80259 15.4616C5.96519 15.1854 6.25126 15.0241 6.54605 15.0217L6.53655 13.9314ZM15.0754 12.9713L15.122 6.1548L14.0325 6.14721L13.9858 12.9644L15.0754 12.9713Z" fill="#444444"/>
<path d="M8.26601 5.09237C6.94211 5.10338 6.28007 5.10923 5.86633 5.53425C5.4515 5.9605 5.44738 6.64018 5.43842 7.99937L5.42779 9.44085C5.41813 10.7998 5.414 11.4795 5.82273 11.8979C6.23057 12.3169 6.89243 12.3117 8.21563 12.3005L9.62028 12.2885C10.9435 12.2773 11.6053 12.2722 12.0193 11.8465C12.4339 11.4209 12.438 10.7412 12.4477 9.38224L12.4569 7.94038C12.4666 6.58138 12.4714 5.90188 12.0636 5.48295C11.8392 5.25297 11.5385 5.1508 11.0934 5.10781" stroke="#444444" stroke-width="1.09012" stroke-linecap="round"/>
</g>
<defs>
<clipPath id="clip0_694_4844">
<rect width="17.4419" height="17.4419" fill="white" transform="translate(0.0664062 16.9248) rotate(-72.6676)"/>
</clipPath>
</defs>
</svg>
