<svg width="18" height="18" viewBox="0 0 18 18" fill="none" xmlns="http://www.w3.org/2000/svg">
<path d="M8.98919 2.60998C8.41096 2.60998 7.85641 2.83968 7.44753 3.24855C7.03866 3.65742 6.80896 4.21197 6.80896 4.79021C6.80896 5.36844 7.03866 5.92299 7.44753 6.33187C7.85641 6.74074 8.41096 6.97044 8.98919 6.97044C9.56742 6.97044 10.122 6.74074 10.5308 6.33187C10.9397 5.92299 11.1694 5.36844 11.1694 4.79021C11.1694 4.21197 10.9397 3.65742 10.5308 3.24855C10.122 2.83968 9.56742 2.60998 8.98919 2.60998ZM5.35547 4.79021C5.35561 4.10269 5.5508 3.42931 5.91836 2.84829C6.28592 2.26727 6.81078 1.80245 7.43196 1.50781C8.05315 1.21318 8.74518 1.10082 9.42768 1.18378C10.1102 1.26675 10.7551 1.54163 11.2876 1.97652C11.8202 2.4114 12.2184 2.98843 12.436 3.64059C12.6537 4.29275 12.6818 4.99327 12.5173 5.66081C12.3527 6.32834 12.0021 6.93548 11.5062 7.41172C11.0104 7.88796 10.3896 8.21375 9.71593 8.35125V12.7844H8.26244V8.35125C7.44181 8.18346 6.7043 7.73743 6.17461 7.08856C5.64493 6.4397 5.35557 5.62782 5.35547 4.79021ZM2.5248 8.42393H6.08221V9.87742H3.82567L3.26027 14.9646H14.7181L14.1527 9.87742H11.8962V8.42393H15.4536L16.3417 16.4181H1.63672L2.5248 8.42393Z" fill="#444444"/>
</svg>
