<svg width="50" height="51" viewBox="0 0 50 51" fill="none" xmlns="http://www.w3.org/2000/svg">
<path d="M29.1621 6.69157V24.0041C29.1621 26.1291 27.4329 27.8582 25.3079 27.8582H6.24544C5.09961 27.8582 4.16211 26.9207 4.16211 25.7749V12.4624C4.16211 8.2124 7.59961 4.7749 11.8496 4.7749H27.2246C28.3079 4.7749 29.1621 5.62907 29.1621 6.69157Z" fill="#EF5DA8"/>
<path d="M44.7871 32.8999C45.3704 32.8999 45.8288 33.3582 45.8288 33.9416V36.0249C45.8288 39.4832 43.0371 42.2749 39.5788 42.2749C39.5788 38.8374 36.7663 36.0249 33.3288 36.0249C29.8913 36.0249 27.0788 38.8374 27.0788 42.2749H22.9121C22.9121 38.8374 20.0996 36.0249 16.6621 36.0249C13.2246 36.0249 10.4121 38.8374 10.4121 42.2749C6.95378 42.2749 4.16211 39.4832 4.16211 36.0249V31.8582C4.16211 30.7124 5.09961 29.7749 6.24544 29.7749H26.0371C28.9121 29.7749 31.2454 27.4416 31.2454 24.5666V13.1082C31.2454 11.9624 32.1829 11.0249 33.3288 11.0249H35.0788C36.5788 11.0249 37.9538 11.8374 38.7038 13.1291L40.0371 15.4624C40.2246 15.7957 39.9746 16.2332 39.5788 16.2332C36.7038 16.2332 34.3704 18.5666 34.3704 21.4416V27.6916C34.3704 30.5666 36.7038 32.8999 39.5788 32.8999H44.7871Z" fill="#EF5DA8"/>
<path d="M16.6628 46.4415C18.9639 46.4415 20.8294 44.576 20.8294 42.2748C20.8294 39.9736 18.9639 38.1082 16.6628 38.1082C14.3616 38.1082 12.4961 39.9736 12.4961 42.2748C12.4961 44.576 14.3616 46.4415 16.6628 46.4415Z" fill="#EF5DA8"/>
<path d="M33.3288 46.4415C35.63 46.4415 37.4954 44.576 37.4954 42.2748C37.4954 39.9736 35.63 38.1082 33.3288 38.1082C31.0276 38.1082 29.1621 39.9736 29.1621 42.2748C29.1621 44.576 31.0276 46.4415 33.3288 46.4415Z" fill="#EF5DA8"/>
<path d="M45.8294 26.7123V29.7748H39.5794C38.4336 29.7748 37.4961 28.8373 37.4961 27.6915V21.4415C37.4961 20.2957 38.4336 19.3582 39.5794 19.3582H42.2669L45.2878 24.6498C45.6419 25.2748 45.8294 25.9832 45.8294 26.7123Z" fill="#EF5DA8"/>
</svg>
